<?xml version="1.0" encoding="utf-8"?>
<!-- Generator: Adobe Illustrator 22.1.0, SVG Export Plug-In . SVG Version: 6.00 Build 0)  -->
<svg version="1.1" id="Слой_1" xmlns="http://www.w3.org/2000/svg" xmlns:xlink="http://www.w3.org/1999/xlink" x="0px" y="0px"
	 viewBox="0 0 283.5 70.9" style="enable-background:new 0 0 283.5 70.9;" xml:space="preserve">
<style type="text/css">
	.st0{fill:#008040;}
	.st1{fill:#009F4E;}
</style>
<g>
	<g>
		<path class="st0" d="M65.1,21.2c0-2.9-0.1-5.5-0.2-7.5h7.8l0.4,3.1h0.1c2.1-2.4,5.4-3.6,9.6-3.6c6.3,0,12,4.3,12,11.5
			c0,8.2-6.7,12.1-13.1,12.1c-3.5,0-6.2-1.1-7.5-2.6h-0.1v11.2h-9V21.2z M74.1,26.5c0,0.6,0.1,1.1,0.2,1.5c0.6,1.9,2.7,3.3,5.3,3.3
			c3.9,0,6.2-2.5,6.2-6.3c0-3.6-2.1-6.3-6.1-6.3c-2.5,0-4.8,1.5-5.4,3.5c-0.1,0.4-0.2,0.8-0.2,1.2V26.5z"/>
		<path class="st0" d="M107.5,27.1c0.3,2.9,4,4.3,8.1,4.3c3.1,0,5.5-0.3,8-0.9l1.2,4.7c-3,0.9-6.5,1.4-10.4,1.4
			c-9.8,0-15.4-4.4-15.4-11.5c0-5.7,4.5-12,14.6-12c9.3,0,12.9,5.7,12.9,11.2c0,1.2-0.2,2.3-0.3,2.8H107.5z M118,22.3
			c0-1.7-0.9-4.6-5.1-4.6c-3.8,0-5.3,2.7-5.5,4.6H118z"/>
		<path class="st0" d="M153.4,35.6c-1.6,0.6-4.6,1-8,1c-9.3,0-15.3-4.4-15.3-11.5c0-6.6,5.8-12,16.5-12c2.4,0,5,0.3,6.8,0.9
			l-1.4,5.2c-1.1-0.4-2.7-0.7-5-0.7c-4.7,0-7.8,2.6-7.7,6.3c0,4.1,3.5,6.3,7.9,6.3c2.1,0,3.8-0.3,5.1-0.7L153.4,35.6z"/>
		<path class="st0" d="M167.6,7.4c0,1.9-1.9,3.5-4.8,3.5c-2.8,0-4.7-1.6-4.7-3.5c-0.1-2,1.8-3.5,4.7-3.5
			C165.7,3.8,167.5,5.3,167.6,7.4z M158.3,36.1V13.6h9v22.5H158.3z"/>
		<path class="st0" d="M190.9,36.1l-0.5-2.3h-0.2c-1.9,1.8-4.8,2.8-8.3,2.8c-5.8,0-9.3-3.3-9.3-6.9c0-5.8,6.7-8.6,16.9-8.6v-0.3
			c0-1.2-0.8-2.9-5.3-2.9c-3,0-6.1,0.8-8,1.7l-1.7-4.5c2-0.9,6-2,11.2-2c9.6,0,12.7,4.4,12.7,9.7v7.8c0,2.2,0.1,4.2,0.4,5.5H190.9z
			 M189.8,25.5c-4.7,0-8.4,0.8-8.4,3.5c0,1.8,1.5,2.7,3.5,2.7c2.2,0,4.1-1.2,4.7-2.6c0.1-0.4,0.2-0.8,0.2-1.2V25.5z"/>
		<path class="st0" d="M205.6,3.4h9v32.7h-9V3.4z"/>
		<path class="st0" d="M231.1,7.4c0,1.9-1.9,3.5-4.8,3.5c-2.8,0-4.7-1.6-4.7-3.5c-0.1-2,1.8-3.5,4.7-3.5
			C229.2,3.8,231.1,5.3,231.1,7.4z M221.9,36.1V13.6h9v22.5H221.9z"/>
		<path class="st0" d="M238,30c1.7,0.8,5.1,1.7,7.7,1.7c2.7,0,3.8-0.7,3.8-1.9c0-1.2-0.9-1.7-4.2-2.6c-6-1.6-8.3-4.1-8.2-6.8
			c0-4.2,4.6-7.4,11.7-7.4c3.4,0,6.4,0.6,8.1,1.3l-1.6,4.8c-1.3-0.6-3.8-1.3-6.3-1.3c-2.2,0-3.4,0.7-3.4,1.8c0,1.1,1.1,1.6,4.7,2.6
			c5.5,1.5,7.8,3.6,7.8,6.9c0,4.2-4.2,7.3-12.5,7.3c-3.8,0-7.1-0.6-9.3-1.6L238,30z"/>
		<path class="st0" d="M273.7,7.2v6.4h6.4v5.2h-6.4v8.1c0,2.7,0.8,4,3.5,4c1.1,0,2-0.1,2.7-0.2l0.1,5.3c-1.2,0.4-3.3,0.6-5.8,0.6
			c-2.9,0-5.3-0.8-6.7-1.9c-1.7-1.3-2.5-3.5-2.5-6.7v-9.2H261v-5.2h3.8V8.7L273.7,7.2z"/>
	</g>
</g>
<g>
	<g>
		<path class="st0" d="M8,52c5,1.8,12.6,3.6,20.5,3.6c8.5,0,13-2.5,13-6.3c0-3.6-3.9-5.7-13.7-8.2C14.2,37.7,5.4,32.3,5.4,23.8
			c0-10,11.6-17.6,30.9-17.6c9.2,0,16,1.4,20.8,3L53,19.8c-3.3-1.1-9.1-2.8-17.1-2.8c-8,0-11.9,2.6-11.9,5.6c0,3.7,4.6,5.4,15.1,8.2
			c14.4,3.8,21.2,9.2,21.2,17.4c0,9.8-10.5,18.1-32.9,18.1c-9.3,0-18.5-1.7-23.1-3.6L8,52z"/>
	</g>
</g>
<g>
	<path d="M87.7,47.9c0,0.1,0,0.1,0,0.2c0,0.1,0,0.1,0,0.1c0,0,0,0.1,0,0.1c0,0-0.1,0.1-0.1,0.1c-0.1,0-0.2,0.1-0.3,0.2
		c-0.2,0.1-0.4,0.2-0.6,0.3c-0.2,0.1-0.5,0.2-0.8,0.2c-0.3,0.1-0.6,0.1-1,0.1c-0.6,0-1.2-0.1-1.7-0.3c-0.5-0.2-0.9-0.5-1.3-0.9
		c-0.4-0.4-0.6-0.9-0.8-1.4c-0.2-0.6-0.3-1.2-0.3-2c0-0.8,0.1-1.4,0.3-2c0.2-0.6,0.5-1.1,0.9-1.5c0.4-0.4,0.8-0.7,1.4-0.9
		c0.5-0.2,1.1-0.3,1.7-0.3c0.3,0,0.6,0,0.8,0.1c0.3,0,0.5,0.1,0.7,0.2c0.2,0.1,0.4,0.2,0.6,0.3c0.2,0.1,0.3,0.2,0.4,0.2
		c0.1,0.1,0.1,0.1,0.1,0.1c0,0,0,0.1,0,0.1c0,0,0,0.1,0,0.2c0,0.1,0,0.1,0,0.2c0,0.1,0,0.2,0,0.2c0,0.1,0,0.1,0,0.2
		c0,0,0,0.1-0.1,0.1c0,0-0.1,0-0.1,0c-0.1,0-0.2,0-0.3-0.1c-0.1-0.1-0.3-0.2-0.5-0.3c-0.2-0.1-0.4-0.2-0.7-0.3
		c-0.3-0.1-0.6-0.1-1-0.1c-0.4,0-0.8,0.1-1.2,0.2c-0.4,0.2-0.7,0.4-0.9,0.7c-0.3,0.3-0.4,0.7-0.6,1.2c-0.1,0.5-0.2,1-0.2,1.6
		c0,0.6,0.1,1.1,0.2,1.5c0.1,0.4,0.3,0.8,0.6,1.1c0.3,0.3,0.6,0.5,0.9,0.7c0.4,0.2,0.8,0.2,1.2,0.2c0.4,0,0.7,0,1-0.1
		c0.3-0.1,0.5-0.2,0.7-0.3c0.2-0.1,0.4-0.2,0.5-0.3c0.1-0.1,0.2-0.1,0.3-0.1c0,0,0.1,0,0.1,0c0,0,0,0,0.1,0.1s0,0.1,0,0.2
		C87.7,47.7,87.7,47.8,87.7,47.9z"/>
	<path d="M95.6,45.8c0,0.5-0.1,1-0.2,1.4c-0.1,0.4-0.4,0.8-0.7,1.1c-0.3,0.3-0.7,0.6-1.1,0.7c-0.4,0.2-0.9,0.3-1.5,0.3
		c-0.6,0-1-0.1-1.5-0.2c-0.4-0.2-0.8-0.4-1-0.7c-0.3-0.3-0.5-0.7-0.6-1.1c-0.1-0.4-0.2-0.9-0.2-1.4c0-0.5,0.1-1,0.2-1.4
		c0.1-0.4,0.4-0.8,0.7-1.1c0.3-0.3,0.7-0.6,1.1-0.7c0.4-0.2,0.9-0.3,1.5-0.3c0.6,0,1,0.1,1.5,0.2c0.4,0.2,0.8,0.4,1,0.7
		c0.3,0.3,0.5,0.7,0.6,1.1C95.5,44.8,95.6,45.3,95.6,45.8z M94.3,45.9c0-0.3,0-0.7-0.1-1c-0.1-0.3-0.2-0.6-0.3-0.8
		c-0.2-0.2-0.4-0.4-0.6-0.6c-0.3-0.1-0.6-0.2-1-0.2c-0.4,0-0.7,0.1-1,0.2c-0.3,0.1-0.5,0.3-0.7,0.5c-0.2,0.2-0.3,0.5-0.4,0.8
		c-0.1,0.3-0.1,0.6-0.1,1c0,0.4,0,0.7,0.1,1c0.1,0.3,0.2,0.6,0.3,0.8c0.2,0.2,0.4,0.4,0.6,0.5c0.3,0.1,0.6,0.2,1,0.2
		c0.4,0,0.7-0.1,1-0.2c0.3-0.1,0.5-0.3,0.7-0.5c0.2-0.2,0.3-0.5,0.4-0.8S94.3,46.2,94.3,45.9z"/>
	<path d="M107.5,49.1C107.5,49.1,107.5,49.1,107.5,49.1c-0.1,0.1-0.1,0.1-0.1,0.2c0,0-0.1,0-0.2,0c-0.1,0-0.2,0-0.3,0
		c-0.1,0-0.2,0-0.3,0c-0.1,0-0.1,0-0.2,0c0,0-0.1,0-0.1-0.1c0,0,0-0.1,0-0.1v-3.9c0-0.3,0-0.5-0.1-0.7c-0.1-0.2-0.1-0.4-0.2-0.6
		c-0.1-0.2-0.3-0.3-0.4-0.4c-0.2-0.1-0.4-0.1-0.6-0.1c-0.3,0-0.6,0.1-0.9,0.3c-0.3,0.2-0.6,0.5-1,0.9v4.5c0,0,0,0.1,0,0.1
		c0,0-0.1,0-0.1,0.1c0,0-0.1,0-0.2,0c-0.1,0-0.2,0-0.3,0c-0.1,0-0.2,0-0.3,0c-0.1,0-0.1,0-0.2,0c0,0-0.1,0-0.1-0.1c0,0,0-0.1,0-0.1
		v-3.9c0-0.3,0-0.5-0.1-0.7c-0.1-0.2-0.1-0.4-0.2-0.6c-0.1-0.2-0.3-0.3-0.4-0.4c-0.2-0.1-0.4-0.1-0.6-0.1c-0.3,0-0.6,0.1-0.9,0.3
		c-0.3,0.2-0.6,0.5-1,0.9v4.5c0,0,0,0.1,0,0.1c0,0-0.1,0-0.1,0.1c0,0-0.1,0-0.2,0c-0.1,0-0.2,0-0.3,0c-0.1,0-0.2,0-0.3,0
		c-0.1,0-0.1,0-0.2,0c0,0-0.1,0-0.1-0.1c0,0,0-0.1,0-0.1v-6.4c0,0,0-0.1,0-0.1s0,0,0.1-0.1c0,0,0.1,0,0.2,0c0.1,0,0.2,0,0.3,0
		c0.1,0,0.2,0,0.3,0c0.1,0,0.1,0,0.2,0c0,0,0.1,0,0.1,0.1c0,0,0,0.1,0,0.1v0.8c0.4-0.4,0.8-0.7,1.1-0.9c0.4-0.2,0.7-0.3,1.1-0.3
		c0.3,0,0.5,0,0.8,0.1c0.2,0.1,0.4,0.1,0.6,0.3c0.2,0.1,0.3,0.2,0.4,0.4c0.1,0.2,0.2,0.3,0.3,0.5c0.2-0.2,0.4-0.4,0.6-0.6
		c0.2-0.2,0.4-0.3,0.6-0.4c0.2-0.1,0.4-0.2,0.6-0.2c0.2,0,0.4-0.1,0.5-0.1c0.4,0,0.8,0.1,1.1,0.2c0.3,0.1,0.5,0.3,0.7,0.6
		c0.2,0.2,0.3,0.5,0.4,0.8c0.1,0.3,0.1,0.7,0.1,1V49.1z"/>
	<path d="M116.1,45.8c0,0.6-0.1,1.1-0.2,1.5c-0.1,0.4-0.3,0.8-0.6,1.1s-0.6,0.5-0.9,0.7c-0.4,0.2-0.8,0.3-1.3,0.3
		c-0.2,0-0.4,0-0.6-0.1c-0.2,0-0.3-0.1-0.5-0.2c-0.2-0.1-0.3-0.2-0.5-0.3c-0.2-0.1-0.3-0.3-0.5-0.4v3.2c0,0,0,0.1,0,0.1
		c0,0-0.1,0.1-0.1,0.1c0,0-0.1,0-0.2,0c-0.1,0-0.2,0-0.3,0c-0.1,0-0.2,0-0.3,0c-0.1,0-0.1,0-0.2,0c0,0-0.1,0-0.1-0.1
		c0,0,0-0.1,0-0.1v-8.9c0,0,0-0.1,0-0.1s0,0,0.1-0.1c0,0,0.1,0,0.2,0c0.1,0,0.2,0,0.3,0c0.1,0,0.2,0,0.3,0s0.1,0,0.2,0
		c0,0,0.1,0,0.1,0.1c0,0,0,0.1,0,0.1v0.9c0.2-0.2,0.4-0.4,0.6-0.5c0.2-0.1,0.4-0.3,0.6-0.4c0.2-0.1,0.4-0.2,0.6-0.2
		c0.2,0,0.4-0.1,0.6-0.1c0.5,0,0.9,0.1,1.3,0.3c0.3,0.2,0.6,0.4,0.9,0.7c0.2,0.3,0.4,0.7,0.5,1.1C116,44.9,116.1,45.3,116.1,45.8z
		 M114.8,45.9c0-0.3,0-0.6-0.1-0.9c-0.1-0.3-0.1-0.6-0.3-0.8c-0.1-0.2-0.3-0.4-0.5-0.6c-0.2-0.1-0.5-0.2-0.8-0.2
		c-0.2,0-0.3,0-0.5,0.1c-0.2,0-0.3,0.1-0.5,0.2c-0.2,0.1-0.3,0.2-0.5,0.4c-0.2,0.2-0.4,0.4-0.6,0.6v2.5c0.3,0.4,0.7,0.7,1,0.9
		c0.3,0.2,0.6,0.3,1,0.3c0.3,0,0.6-0.1,0.8-0.2c0.2-0.1,0.4-0.3,0.5-0.6c0.1-0.2,0.2-0.5,0.3-0.8C114.7,46.5,114.8,46.2,114.8,45.9z
		"/>
	<path d="M123.7,45.6c0,0.2,0,0.3-0.1,0.4c-0.1,0.1-0.2,0.1-0.3,0.1h-4.5c0,0.4,0,0.7,0.1,1c0.1,0.3,0.2,0.5,0.4,0.7
		s0.4,0.4,0.7,0.5c0.3,0.1,0.6,0.2,1,0.2c0.3,0,0.6,0,0.9-0.1c0.3,0,0.5-0.1,0.7-0.2c0.2-0.1,0.3-0.1,0.5-0.2c0.1,0,0.2-0.1,0.3-0.1
		c0,0,0.1,0,0.1,0c0,0,0,0,0.1,0.1s0,0.1,0,0.1s0,0.1,0,0.2c0,0.1,0,0.1,0,0.2c0,0,0,0.1,0,0.1s0,0.1,0,0.1c0,0,0,0.1-0.1,0.1
		c0,0-0.1,0.1-0.2,0.1c-0.1,0.1-0.3,0.1-0.5,0.2c-0.2,0.1-0.5,0.1-0.8,0.2c-0.3,0-0.6,0.1-0.9,0.1c-0.6,0-1-0.1-1.5-0.2
		s-0.8-0.4-1.1-0.7s-0.5-0.7-0.6-1.1c-0.1-0.4-0.2-0.9-0.2-1.5c0-0.5,0.1-1,0.2-1.5c0.2-0.4,0.4-0.8,0.7-1.1c0.3-0.3,0.6-0.5,1-0.7
		c0.4-0.2,0.9-0.2,1.4-0.2c0.5,0,1,0.1,1.4,0.2c0.4,0.2,0.7,0.4,0.9,0.6c0.2,0.3,0.4,0.6,0.5,1c0.1,0.4,0.2,0.8,0.2,1.2V45.6z
		 M122.5,45.2c0-0.6-0.1-1.1-0.4-1.4c-0.3-0.4-0.8-0.5-1.4-0.5c-0.3,0-0.6,0.1-0.8,0.2c-0.2,0.1-0.4,0.3-0.6,0.4
		c-0.2,0.2-0.3,0.4-0.4,0.6c-0.1,0.2-0.1,0.5-0.1,0.7H122.5z"/>
	<path d="M129.1,48.6c0,0.1,0,0.2,0,0.3c0,0.1-0.1,0.1-0.1,0.2c0,0-0.1,0.1-0.2,0.1c-0.1,0-0.2,0.1-0.3,0.1c-0.1,0-0.2,0-0.3,0.1
		c-0.1,0-0.2,0-0.3,0c-0.4,0-0.7,0-0.9-0.1c-0.3-0.1-0.5-0.2-0.6-0.4c-0.2-0.2-0.3-0.4-0.4-0.7c-0.1-0.3-0.1-0.6-0.1-1v-3.7h-1
		c-0.1,0-0.1,0-0.2-0.1c0-0.1-0.1-0.2-0.1-0.4c0-0.1,0-0.2,0-0.2c0-0.1,0-0.1,0-0.2c0,0,0-0.1,0.1-0.1c0,0,0.1,0,0.1,0h0.9V41
		c0,0,0-0.1,0-0.1c0,0,0.1-0.1,0.1-0.1c0,0,0.1,0,0.2,0c0.1,0,0.2,0,0.3,0c0.1,0,0.2,0,0.3,0c0.1,0,0.1,0,0.2,0c0,0,0.1,0,0.1,0.1
		c0,0,0,0.1,0,0.1v1.5h1.7c0,0,0.1,0,0.1,0c0,0,0.1,0,0.1,0.1c0,0,0,0.1,0,0.2c0,0.1,0,0.1,0,0.2c0,0.2,0,0.3-0.1,0.4
		c0,0.1-0.1,0.1-0.2,0.1h-1.7V47c0,0.4,0.1,0.8,0.2,1c0.1,0.2,0.4,0.3,0.7,0.3c0.1,0,0.2,0,0.3,0c0.1,0,0.2,0,0.2-0.1
		c0.1,0,0.1,0,0.2-0.1c0.1,0,0.1,0,0.1,0c0,0,0,0,0.1,0c0,0,0,0,0.1,0.1s0,0.1,0,0.1C129.1,48.4,129.1,48.5,129.1,48.6z"/>
	<path d="M136.4,45.6c0,0.2,0,0.3-0.1,0.4c-0.1,0.1-0.2,0.1-0.3,0.1h-4.5c0,0.4,0,0.7,0.1,1c0.1,0.3,0.2,0.5,0.4,0.7
		s0.4,0.4,0.7,0.5c0.3,0.1,0.6,0.2,1,0.2c0.3,0,0.6,0,0.9-0.1c0.3,0,0.5-0.1,0.7-0.2c0.2-0.1,0.3-0.1,0.5-0.2c0.1,0,0.2-0.1,0.3-0.1
		c0,0,0.1,0,0.1,0c0,0,0,0,0.1,0.1s0,0.1,0,0.1c0,0.1,0,0.1,0,0.2c0,0.1,0,0.1,0,0.2c0,0,0,0.1,0,0.1c0,0,0,0.1,0,0.1
		c0,0,0,0.1-0.1,0.1c0,0-0.1,0.1-0.2,0.1c-0.1,0.1-0.3,0.1-0.5,0.2c-0.2,0.1-0.5,0.1-0.8,0.2c-0.3,0-0.6,0.1-0.9,0.1
		c-0.6,0-1-0.1-1.5-0.2c-0.4-0.1-0.8-0.4-1.1-0.7c-0.3-0.3-0.5-0.7-0.6-1.1c-0.1-0.4-0.2-0.9-0.2-1.5c0-0.5,0.1-1,0.2-1.5
		c0.2-0.4,0.4-0.8,0.7-1.1c0.3-0.3,0.6-0.5,1-0.7c0.4-0.2,0.9-0.2,1.4-0.2c0.5,0,1,0.1,1.4,0.2c0.4,0.2,0.7,0.4,0.9,0.6
		c0.2,0.3,0.4,0.6,0.5,1c0.1,0.4,0.2,0.8,0.2,1.2V45.6z M135.1,45.2c0-0.6-0.1-1.1-0.4-1.4c-0.3-0.4-0.8-0.5-1.4-0.5
		c-0.3,0-0.6,0.1-0.8,0.2c-0.2,0.1-0.4,0.3-0.6,0.4c-0.2,0.2-0.3,0.4-0.4,0.6c-0.1,0.2-0.1,0.5-0.1,0.7H135.1z"/>
	<path d="M144.1,49.1C144.1,49.1,144.1,49.1,144.1,49.1c-0.1,0.1-0.1,0.1-0.1,0.2c0,0-0.1,0-0.2,0c-0.1,0-0.2,0-0.3,0
		c-0.1,0-0.2,0-0.3,0c-0.1,0-0.1,0-0.2,0c0,0-0.1,0-0.1-0.1c0,0,0-0.1,0-0.1v-3.7c0-0.4,0-0.7-0.1-0.9c-0.1-0.2-0.1-0.4-0.3-0.6
		c-0.1-0.2-0.3-0.3-0.4-0.4c-0.2-0.1-0.4-0.1-0.6-0.1c-0.3,0-0.6,0.1-0.9,0.3c-0.3,0.2-0.6,0.5-1,0.9v4.5c0,0,0,0.1,0,0.1
		c0,0-0.1,0-0.1,0.1c0,0-0.1,0-0.2,0c-0.1,0-0.2,0-0.3,0c-0.1,0-0.2,0-0.3,0c-0.1,0-0.1,0-0.2,0c0,0-0.1,0-0.1-0.1c0,0,0-0.1,0-0.1
		v-6.4c0,0,0-0.1,0-0.1s0,0,0.1-0.1c0,0,0.1,0,0.2,0s0.2,0,0.3,0c0.1,0,0.2,0,0.3,0c0.1,0,0.1,0,0.2,0c0,0,0.1,0,0.1,0.1
		c0,0,0,0.1,0,0.1v0.8c0.4-0.4,0.8-0.7,1.1-0.9c0.4-0.2,0.8-0.3,1.2-0.3c0.5,0,0.8,0.1,1.1,0.2c0.3,0.1,0.6,0.3,0.8,0.6
		c0.2,0.2,0.3,0.5,0.4,0.8c0.1,0.3,0.1,0.7,0.1,1.2V49.1z"/>
	<path d="M151.3,48.1c0,0.1,0,0.2,0,0.2c0,0.1,0,0.1,0,0.1c0,0,0,0.1,0,0.1c0,0-0.1,0.1-0.1,0.1c-0.1,0.1-0.2,0.1-0.3,0.2
		c-0.2,0.1-0.3,0.2-0.5,0.2c-0.2,0.1-0.4,0.1-0.6,0.2c-0.2,0-0.5,0.1-0.7,0.1c-0.5,0-0.9-0.1-1.3-0.2c-0.4-0.2-0.7-0.4-0.9-0.7
		c-0.3-0.3-0.4-0.6-0.6-1.1c-0.1-0.4-0.2-0.9-0.2-1.5c0-0.6,0.1-1.2,0.2-1.6c0.2-0.5,0.4-0.8,0.7-1.1c0.3-0.3,0.6-0.5,1-0.6
		c0.4-0.1,0.8-0.2,1.3-0.2c0.2,0,0.4,0,0.6,0.1c0.2,0,0.4,0.1,0.6,0.1c0.2,0.1,0.3,0.1,0.5,0.2c0.1,0.1,0.2,0.1,0.3,0.2
		c0.1,0.1,0.1,0.1,0.1,0.1c0,0,0,0.1,0.1,0.1c0,0,0,0.1,0,0.2c0,0.1,0,0.1,0,0.2c0,0.2,0,0.3-0.1,0.4c0,0.1-0.1,0.1-0.2,0.1
		c-0.1,0-0.2,0-0.3-0.1c-0.1-0.1-0.2-0.2-0.4-0.3c-0.2-0.1-0.3-0.2-0.5-0.3c-0.2-0.1-0.5-0.1-0.8-0.1c-0.6,0-1.1,0.2-1.4,0.7
		c-0.3,0.4-0.5,1.1-0.5,1.9c0,0.4,0,0.8,0.1,1.1c0.1,0.3,0.2,0.6,0.4,0.8c0.2,0.2,0.4,0.4,0.6,0.5c0.2,0.1,0.5,0.2,0.8,0.2
		c0.3,0,0.5,0,0.8-0.1c0.2-0.1,0.4-0.2,0.6-0.3c0.2-0.1,0.3-0.2,0.4-0.3c0.1-0.1,0.2-0.1,0.3-0.1c0,0,0.1,0,0.1,0c0,0,0,0.1,0.1,0.1
		c0,0,0,0.1,0,0.2C151.3,47.9,151.3,48,151.3,48.1z"/>
	<path d="M158.7,45.6c0,0.2,0,0.3-0.1,0.4c-0.1,0.1-0.2,0.1-0.3,0.1h-4.5c0,0.4,0,0.7,0.1,1c0.1,0.3,0.2,0.5,0.4,0.7
		s0.4,0.4,0.7,0.5c0.3,0.1,0.6,0.2,1,0.2c0.3,0,0.6,0,0.9-0.1s0.5-0.1,0.7-0.2c0.2-0.1,0.3-0.1,0.5-0.2c0.1,0,0.2-0.1,0.3-0.1
		c0,0,0.1,0,0.1,0c0,0,0,0,0.1,0.1s0,0.1,0,0.1c0,0.1,0,0.1,0,0.2c0,0.1,0,0.1,0,0.2c0,0,0,0.1,0,0.1c0,0,0,0.1,0,0.1s0,0.1-0.1,0.1
		c0,0-0.1,0.1-0.2,0.1c-0.1,0.1-0.3,0.1-0.5,0.2s-0.5,0.1-0.8,0.2s-0.6,0.1-0.9,0.1c-0.6,0-1-0.1-1.5-0.2c-0.4-0.1-0.8-0.4-1.1-0.7
		c-0.3-0.3-0.5-0.7-0.6-1.1c-0.1-0.4-0.2-0.9-0.2-1.5c0-0.5,0.1-1,0.2-1.5c0.2-0.4,0.4-0.8,0.7-1.1c0.3-0.3,0.6-0.5,1-0.7
		c0.4-0.2,0.9-0.2,1.4-0.2c0.5,0,1,0.1,1.4,0.2c0.4,0.2,0.7,0.4,0.9,0.6c0.2,0.3,0.4,0.6,0.5,1c0.1,0.4,0.2,0.8,0.2,1.2V45.6z
		 M157.5,45.2c0-0.6-0.1-1.1-0.4-1.4c-0.3-0.4-0.8-0.5-1.4-0.5c-0.3,0-0.6,0.1-0.8,0.2c-0.2,0.1-0.4,0.3-0.6,0.4
		c-0.2,0.2-0.3,0.4-0.4,0.6c-0.1,0.2-0.1,0.5-0.1,0.7H157.5z"/>
	<path d="M165.5,40.5c0,0.3-0.1,0.5-0.2,0.6c-0.1,0.1-0.3,0.1-0.6,0.1c-0.3,0-0.5,0-0.6-0.1c-0.1-0.1-0.2-0.3-0.2-0.5
		c0-0.3,0.1-0.5,0.2-0.6c0.1-0.1,0.3-0.1,0.6-0.1c0.3,0,0.5,0,0.6,0.1C165.5,40.1,165.5,40.2,165.5,40.5z M165.4,49.1
		C165.4,49.1,165.4,49.1,165.4,49.1c-0.1,0.1-0.1,0.1-0.1,0.2c0,0-0.1,0-0.2,0c-0.1,0-0.2,0-0.3,0c-0.1,0-0.2,0-0.3,0
		c-0.1,0-0.1,0-0.2,0c0,0-0.1,0-0.1-0.1c0,0,0-0.1,0-0.1v-6.4c0,0,0-0.1,0-0.1c0,0,0.1-0.1,0.1-0.1c0,0,0.1,0,0.2,0
		c0.1,0,0.2,0,0.3,0c0.1,0,0.2,0,0.3,0c0.1,0,0.1,0,0.2,0s0.1,0,0.1,0.1c0,0,0,0.1,0,0.1V49.1z"/>
	<path d="M173.6,49.1C173.6,49.1,173.5,49.1,173.6,49.1c-0.1,0.1-0.1,0.1-0.1,0.2c0,0-0.1,0-0.2,0c-0.1,0-0.2,0-0.3,0
		c-0.1,0-0.2,0-0.3,0c-0.1,0-0.1,0-0.2,0c0,0-0.1,0-0.1-0.1c0,0,0-0.1,0-0.1v-3.7c0-0.4,0-0.7-0.1-0.9c-0.1-0.2-0.1-0.4-0.3-0.6
		c-0.1-0.2-0.3-0.3-0.4-0.4c-0.2-0.1-0.4-0.1-0.6-0.1c-0.3,0-0.6,0.1-0.9,0.3c-0.3,0.2-0.6,0.5-1,0.9v4.5c0,0,0,0.1,0,0.1
		c0,0-0.1,0-0.1,0.1c0,0-0.1,0-0.2,0c-0.1,0-0.2,0-0.3,0c-0.1,0-0.2,0-0.3,0c-0.1,0-0.1,0-0.2,0c0,0-0.1,0-0.1-0.1c0,0,0-0.1,0-0.1
		v-6.4c0,0,0-0.1,0-0.1s0,0,0.1-0.1c0,0,0.1,0,0.2,0c0.1,0,0.2,0,0.3,0c0.1,0,0.2,0,0.3,0c0.1,0,0.1,0,0.2,0c0,0,0.1,0,0.1,0.1
		c0,0,0,0.1,0,0.1v0.8c0.4-0.4,0.8-0.7,1.1-0.9c0.4-0.2,0.8-0.3,1.2-0.3c0.5,0,0.8,0.1,1.1,0.2c0.3,0.1,0.6,0.3,0.8,0.6
		c0.2,0.2,0.3,0.5,0.4,0.8c0.1,0.3,0.1,0.7,0.1,1.2V49.1z"/>
	<path d="M185.6,45.8c0,0.6-0.1,1.1-0.2,1.5c-0.1,0.4-0.3,0.8-0.6,1.1c-0.2,0.3-0.6,0.5-0.9,0.7c-0.4,0.2-0.8,0.3-1.3,0.3
		c-0.2,0-0.4,0-0.6-0.1c-0.2,0-0.3-0.1-0.5-0.2c-0.2-0.1-0.3-0.2-0.5-0.3c-0.2-0.1-0.3-0.3-0.5-0.4v3.2c0,0,0,0.1,0,0.1
		c0,0-0.1,0.1-0.1,0.1s-0.1,0-0.2,0c-0.1,0-0.2,0-0.3,0c-0.1,0-0.2,0-0.3,0c-0.1,0-0.1,0-0.2,0c0,0-0.1,0-0.1-0.1c0,0,0-0.1,0-0.1
		v-8.9c0,0,0-0.1,0-0.1s0,0,0.1-0.1c0,0,0.1,0,0.2,0s0.2,0,0.3,0c0.1,0,0.2,0,0.3,0s0.1,0,0.2,0c0,0,0.1,0,0.1,0.1c0,0,0,0.1,0,0.1
		v0.9c0.2-0.2,0.4-0.4,0.6-0.5c0.2-0.1,0.4-0.3,0.6-0.4c0.2-0.1,0.4-0.2,0.6-0.2c0.2,0,0.4-0.1,0.6-0.1c0.5,0,0.9,0.1,1.3,0.3
		c0.3,0.2,0.6,0.4,0.9,0.7c0.2,0.3,0.4,0.7,0.5,1.1C185.5,44.9,185.6,45.3,185.6,45.8z M184.3,45.9c0-0.3,0-0.6-0.1-0.9
		c-0.1-0.3-0.1-0.6-0.3-0.8c-0.1-0.2-0.3-0.4-0.5-0.6c-0.2-0.1-0.5-0.2-0.8-0.2c-0.2,0-0.3,0-0.5,0.1c-0.2,0-0.3,0.1-0.5,0.2
		c-0.2,0.1-0.3,0.2-0.5,0.4c-0.2,0.2-0.4,0.4-0.6,0.6v2.5c0.3,0.4,0.7,0.7,1,0.9c0.3,0.2,0.6,0.3,1,0.3c0.3,0,0.6-0.1,0.8-0.2
		c0.2-0.1,0.4-0.3,0.5-0.6c0.1-0.2,0.2-0.5,0.3-0.8C184.3,46.5,184.3,46.2,184.3,45.9z"/>
	<path d="M193.3,49.1C193.3,49.1,193.3,49.1,193.3,49.1c-0.1,0.1-0.1,0.1-0.1,0.2c0,0-0.1,0-0.2,0c-0.1,0-0.2,0-0.3,0
		c-0.1,0-0.2,0-0.3,0c-0.1,0-0.1,0-0.2,0c0,0-0.1,0-0.1-0.1c0,0,0-0.1,0-0.1v-3.7c0-0.4,0-0.7-0.1-0.9c-0.1-0.2-0.1-0.4-0.3-0.6
		c-0.1-0.2-0.3-0.3-0.4-0.4c-0.2-0.1-0.4-0.1-0.6-0.1c-0.3,0-0.6,0.1-0.9,0.3c-0.3,0.2-0.6,0.5-1,0.9v4.5c0,0,0,0.1,0,0.1
		c0,0-0.1,0-0.1,0.1c0,0-0.1,0-0.2,0c-0.1,0-0.2,0-0.3,0c-0.1,0-0.2,0-0.3,0c-0.1,0-0.1,0-0.2,0c0,0-0.1,0-0.1-0.1c0,0,0-0.1,0-0.1
		v-6.4c0,0,0-0.1,0-0.1s0,0,0.1-0.1c0,0,0.1,0,0.2,0s0.2,0,0.3,0c0.1,0,0.2,0,0.3,0c0.1,0,0.1,0,0.2,0c0,0,0.1,0,0.1,0.1
		c0,0,0,0.1,0,0.1v0.8c0.4-0.4,0.8-0.7,1.1-0.9c0.4-0.2,0.8-0.3,1.2-0.3c0.5,0,0.8,0.1,1.1,0.2c0.3,0.1,0.6,0.3,0.8,0.6
		c0.2,0.2,0.3,0.5,0.4,0.8c0.1,0.3,0.1,0.7,0.1,1.2V49.1z"/>
	<path d="M201.4,45.6c0,0.2,0,0.3-0.1,0.4c-0.1,0.1-0.2,0.1-0.3,0.1h-4.5c0,0.4,0,0.7,0.1,1c0.1,0.3,0.2,0.5,0.4,0.7
		s0.4,0.4,0.7,0.5c0.3,0.1,0.6,0.2,1,0.2c0.3,0,0.6,0,0.9-0.1c0.3,0,0.5-0.1,0.7-0.2c0.2-0.1,0.3-0.1,0.5-0.2c0.1,0,0.2-0.1,0.3-0.1
		c0,0,0.1,0,0.1,0c0,0,0,0,0.1,0.1s0,0.1,0,0.1s0,0.1,0,0.2c0,0.1,0,0.1,0,0.2c0,0,0,0.1,0,0.1c0,0,0,0.1,0,0.1c0,0,0,0.1-0.1,0.1
		c0,0-0.1,0.1-0.2,0.1c-0.1,0.1-0.3,0.1-0.5,0.2c-0.2,0.1-0.5,0.1-0.8,0.2c-0.3,0-0.6,0.1-0.9,0.1c-0.6,0-1-0.1-1.5-0.2
		c-0.4-0.1-0.8-0.4-1.1-0.7c-0.3-0.3-0.5-0.7-0.6-1.1c-0.1-0.4-0.2-0.9-0.2-1.5c0-0.5,0.1-1,0.2-1.5c0.2-0.4,0.4-0.8,0.7-1.1
		c0.3-0.3,0.6-0.5,1-0.7c0.4-0.2,0.9-0.2,1.4-0.2c0.5,0,1,0.1,1.4,0.2c0.4,0.2,0.7,0.4,0.9,0.6c0.2,0.3,0.4,0.6,0.5,1
		c0.1,0.4,0.2,0.8,0.2,1.2V45.6z M200.1,45.2c0-0.6-0.1-1.1-0.4-1.4c-0.3-0.4-0.8-0.5-1.4-0.5c-0.3,0-0.6,0.1-0.8,0.2
		c-0.2,0.1-0.4,0.3-0.6,0.4c-0.2,0.2-0.3,0.4-0.4,0.6c-0.1,0.2-0.1,0.5-0.1,0.7H200.1z"/>
	<path d="M209.1,49.1C209.1,49.1,209.1,49.1,209.1,49.1c0,0.1-0.1,0.1-0.1,0.2c0,0-0.1,0-0.2,0c-0.1,0-0.2,0-0.3,0
		c-0.1,0-0.2,0-0.3,0c-0.1,0-0.1,0-0.2,0c0,0-0.1,0-0.1-0.1s0-0.1,0-0.1v-0.8c-0.4,0.4-0.8,0.7-1.1,0.9c-0.4,0.2-0.8,0.3-1.1,0.3
		c-0.5,0-0.8-0.1-1.1-0.2c-0.3-0.1-0.6-0.3-0.8-0.6c-0.2-0.2-0.3-0.5-0.4-0.9c-0.1-0.3-0.1-0.7-0.1-1.2v-3.9c0,0,0-0.1,0-0.1
		c0,0,0.1,0,0.1-0.1c0.1,0,0.1,0,0.2,0c0.1,0,0.2,0,0.3,0c0.1,0,0.2,0,0.3,0c0.1,0,0.1,0,0.2,0c0,0,0.1,0,0.1,0.1c0,0,0,0.1,0,0.1
		v3.7c0,0.4,0,0.7,0.1,0.9s0.1,0.4,0.3,0.6c0.1,0.2,0.3,0.3,0.4,0.4s0.4,0.1,0.6,0.1c0.3,0,0.6-0.1,0.9-0.3c0.3-0.2,0.6-0.5,1-0.9
		v-4.5c0,0,0-0.1,0-0.1c0,0,0.1,0,0.1-0.1c0.1,0,0.1,0,0.2,0c0.1,0,0.2,0,0.3,0c0.1,0,0.2,0,0.3,0c0.1,0,0.1,0,0.2,0
		c0,0,0.1,0,0.1,0.1c0,0,0,0.1,0,0.1V49.1z"/>
	<path d="M221.5,49.1C221.5,49.1,221.5,49.1,221.5,49.1c-0.1,0.1-0.1,0.1-0.1,0.2c0,0-0.1,0-0.2,0c-0.1,0-0.2,0-0.3,0
		c-0.1,0-0.2,0-0.3,0c-0.1,0-0.1,0-0.2,0c0,0-0.1,0-0.1-0.1c0,0,0-0.1,0-0.1v-3.9c0-0.3,0-0.5-0.1-0.7c-0.1-0.2-0.1-0.4-0.2-0.6
		c-0.1-0.2-0.3-0.3-0.4-0.4s-0.4-0.1-0.6-0.1c-0.3,0-0.6,0.1-0.9,0.3c-0.3,0.2-0.6,0.5-1,0.9v4.5c0,0,0,0.1,0,0.1c0,0-0.1,0-0.1,0.1
		c0,0-0.1,0-0.2,0c-0.1,0-0.2,0-0.3,0c-0.1,0-0.2,0-0.3,0c-0.1,0-0.1,0-0.2,0c0,0-0.1,0-0.1-0.1c0,0,0-0.1,0-0.1v-3.9
		c0-0.3,0-0.5-0.1-0.7c-0.1-0.2-0.1-0.4-0.2-0.6c-0.1-0.2-0.3-0.3-0.4-0.4c-0.2-0.1-0.4-0.1-0.6-0.1c-0.3,0-0.6,0.1-0.9,0.3
		c-0.3,0.2-0.6,0.5-1,0.9v4.5c0,0,0,0.1,0,0.1c0,0-0.1,0-0.1,0.1c0,0-0.1,0-0.2,0c-0.1,0-0.2,0-0.3,0c-0.1,0-0.2,0-0.3,0
		c-0.1,0-0.1,0-0.2,0c0,0-0.1,0-0.1-0.1c0,0,0-0.1,0-0.1v-6.4c0,0,0-0.1,0-0.1s0,0,0.1-0.1c0,0,0.1,0,0.2,0s0.2,0,0.3,0
		c0.1,0,0.2,0,0.3,0c0.1,0,0.1,0,0.2,0c0,0,0.1,0,0.1,0.1c0,0,0,0.1,0,0.1v0.8c0.4-0.4,0.8-0.7,1.1-0.9c0.4-0.2,0.7-0.3,1.1-0.3
		c0.3,0,0.5,0,0.8,0.1c0.2,0.1,0.4,0.1,0.6,0.3c0.2,0.1,0.3,0.2,0.4,0.4s0.2,0.3,0.3,0.5c0.2-0.2,0.4-0.4,0.6-0.6
		c0.2-0.2,0.4-0.3,0.6-0.4c0.2-0.1,0.4-0.2,0.6-0.2c0.2,0,0.4-0.1,0.5-0.1c0.4,0,0.8,0.1,1.1,0.2c0.3,0.1,0.5,0.3,0.7,0.6
		c0.2,0.2,0.3,0.5,0.4,0.8c0.1,0.3,0.1,0.7,0.1,1V49.1z"/>
	<path d="M228.9,49.1c0,0.1,0,0.1-0.1,0.1c0,0-0.1,0-0.2,0.1c-0.1,0-0.2,0-0.3,0c-0.1,0-0.2,0-0.3,0c-0.1,0-0.1,0-0.2-0.1
		c0,0-0.1-0.1-0.1-0.1v-0.6c-0.3,0.3-0.6,0.5-1,0.7c-0.4,0.2-0.8,0.2-1.2,0.2c-0.4,0-0.7,0-1-0.1c-0.3-0.1-0.5-0.2-0.7-0.4
		c-0.2-0.2-0.4-0.4-0.5-0.6c-0.1-0.2-0.2-0.5-0.2-0.8c0-0.4,0.1-0.7,0.2-0.9c0.2-0.3,0.4-0.5,0.7-0.7c0.3-0.2,0.7-0.3,1.1-0.4
		c0.4-0.1,0.9-0.1,1.4-0.1h0.9v-0.5c0-0.2,0-0.5-0.1-0.7c-0.1-0.2-0.1-0.3-0.3-0.5c-0.1-0.1-0.3-0.2-0.5-0.3
		c-0.2-0.1-0.4-0.1-0.7-0.1c-0.3,0-0.6,0-0.8,0.1c-0.2,0.1-0.5,0.1-0.6,0.2c-0.2,0.1-0.3,0.2-0.5,0.2c-0.1,0.1-0.2,0.1-0.3,0.1
		c0,0-0.1,0-0.1,0s-0.1,0-0.1-0.1c0,0,0-0.1,0-0.1c0-0.1,0-0.1,0-0.2c0-0.1,0-0.2,0-0.3c0-0.1,0.1-0.1,0.1-0.2
		c0.1-0.1,0.2-0.1,0.4-0.2c0.2-0.1,0.4-0.2,0.6-0.2c0.2-0.1,0.5-0.1,0.7-0.2c0.3,0,0.5-0.1,0.8-0.1c0.5,0,0.9,0.1,1.2,0.2
		c0.3,0.1,0.6,0.3,0.8,0.5c0.2,0.2,0.4,0.5,0.5,0.7c0.1,0.3,0.1,0.6,0.1,1V49.1z M227.7,46.2h-1.1c-0.3,0-0.6,0-0.9,0.1
		c-0.3,0.1-0.5,0.1-0.6,0.2c-0.2,0.1-0.3,0.2-0.4,0.4c-0.1,0.1-0.1,0.3-0.1,0.5c0,0.3,0.1,0.6,0.3,0.8c0.2,0.2,0.5,0.3,0.9,0.3
		c0.3,0,0.6-0.1,0.9-0.2c0.3-0.2,0.6-0.4,0.9-0.7V46.2z"/>
	<path d="M234.6,48.6c0,0.1,0,0.2,0,0.3c0,0.1-0.1,0.1-0.1,0.2c0,0-0.1,0.1-0.2,0.1c-0.1,0-0.2,0.1-0.3,0.1c-0.1,0-0.2,0-0.3,0.1
		c-0.1,0-0.2,0-0.3,0c-0.4,0-0.7,0-0.9-0.1c-0.3-0.1-0.5-0.2-0.6-0.4c-0.2-0.2-0.3-0.4-0.4-0.7c-0.1-0.3-0.1-0.6-0.1-1v-3.7h-1
		c-0.1,0-0.1,0-0.2-0.1c0-0.1-0.1-0.2-0.1-0.4c0-0.1,0-0.2,0-0.2c0-0.1,0-0.1,0-0.2c0,0,0-0.1,0.1-0.1c0,0,0.1,0,0.1,0h0.9V41
		c0,0,0-0.1,0-0.1c0,0,0.1-0.1,0.1-0.1c0,0,0.1,0,0.2,0c0.1,0,0.2,0,0.3,0c0.1,0,0.2,0,0.3,0c0.1,0,0.1,0,0.2,0c0,0,0.1,0,0.1,0.1
		c0,0,0,0.1,0,0.1v1.5h1.7c0,0,0.1,0,0.1,0c0,0,0.1,0,0.1,0.1c0,0,0,0.1,0,0.2c0,0.1,0,0.1,0,0.2c0,0.2,0,0.3-0.1,0.4
		c0,0.1-0.1,0.1-0.2,0.1h-1.7V47c0,0.4,0.1,0.8,0.2,1c0.1,0.2,0.4,0.3,0.7,0.3c0.1,0,0.2,0,0.3,0c0.1,0,0.2,0,0.2-0.1
		c0.1,0,0.1,0,0.2-0.1c0.1,0,0.1,0,0.1,0c0,0,0,0,0.1,0c0,0,0,0,0.1,0.1c0,0,0,0.1,0,0.1C234.6,48.4,234.6,48.5,234.6,48.6z"/>
	<path d="M237.6,40.5c0,0.3-0.1,0.5-0.2,0.6c-0.1,0.1-0.3,0.1-0.6,0.1c-0.3,0-0.5,0-0.6-0.1c-0.1-0.1-0.2-0.3-0.2-0.5
		c0-0.3,0.1-0.5,0.2-0.6c0.1-0.1,0.3-0.1,0.6-0.1c0.3,0,0.5,0,0.6,0.1C237.6,40.1,237.6,40.2,237.6,40.5z M237.5,49.1
		C237.5,49.1,237.5,49.1,237.5,49.1c-0.1,0.1-0.1,0.1-0.1,0.2c0,0-0.1,0-0.2,0c-0.1,0-0.2,0-0.3,0c-0.1,0-0.2,0-0.3,0
		c-0.1,0-0.1,0-0.2,0c0,0-0.1,0-0.1-0.1c0,0,0-0.1,0-0.1v-6.4c0,0,0-0.1,0-0.1c0,0,0.1-0.1,0.1-0.1c0,0,0.1,0,0.2,0
		c0.1,0,0.2,0,0.3,0c0.1,0,0.2,0,0.3,0c0.1,0,0.1,0,0.2,0s0.1,0,0.1,0.1c0,0,0,0.1,0,0.1V49.1z"/>
	<path d="M244.7,48.1c0,0.1,0,0.2,0,0.2c0,0.1,0,0.1,0,0.1c0,0,0,0.1,0,0.1c0,0-0.1,0.1-0.1,0.1c-0.1,0.1-0.2,0.1-0.3,0.2
		c-0.2,0.1-0.3,0.2-0.5,0.2c-0.2,0.1-0.4,0.1-0.6,0.2c-0.2,0-0.5,0.1-0.7,0.1c-0.5,0-0.9-0.1-1.3-0.2c-0.4-0.2-0.7-0.4-0.9-0.7
		c-0.3-0.3-0.4-0.6-0.6-1.1c-0.1-0.4-0.2-0.9-0.2-1.5c0-0.6,0.1-1.2,0.2-1.6c0.2-0.5,0.4-0.8,0.7-1.1c0.3-0.3,0.6-0.5,1-0.6
		c0.4-0.1,0.8-0.2,1.3-0.2c0.2,0,0.4,0,0.6,0.1c0.2,0,0.4,0.1,0.6,0.1c0.2,0.1,0.3,0.1,0.5,0.2c0.1,0.1,0.2,0.1,0.3,0.2
		c0.1,0.1,0.1,0.1,0.1,0.1c0,0,0,0.1,0.1,0.1c0,0,0,0.1,0,0.2c0,0.1,0,0.1,0,0.2c0,0.2,0,0.3-0.1,0.4c0,0.1-0.1,0.1-0.2,0.1
		c-0.1,0-0.2,0-0.3-0.1c-0.1-0.1-0.2-0.2-0.4-0.3c-0.2-0.1-0.3-0.2-0.5-0.3c-0.2-0.1-0.5-0.1-0.8-0.1c-0.6,0-1.1,0.2-1.4,0.7
		c-0.3,0.4-0.5,1.1-0.5,1.9c0,0.4,0,0.8,0.1,1.1c0.1,0.3,0.2,0.6,0.4,0.8c0.2,0.2,0.4,0.4,0.6,0.5c0.2,0.1,0.5,0.2,0.8,0.2
		c0.3,0,0.5,0,0.8-0.1c0.2-0.1,0.4-0.2,0.6-0.3c0.2-0.1,0.3-0.2,0.4-0.3c0.1-0.1,0.2-0.1,0.3-0.1c0,0,0.1,0,0.1,0c0,0,0,0.1,0.1,0.1
		c0,0,0,0.1,0,0.2C244.7,47.9,244.7,48,244.7,48.1z"/>
	<path d="M250.6,47.3c0,0.3-0.1,0.6-0.2,0.9c-0.1,0.3-0.3,0.5-0.5,0.6c-0.2,0.2-0.5,0.3-0.8,0.4c-0.3,0.1-0.7,0.1-1.1,0.1
		c-0.2,0-0.5,0-0.7-0.1c-0.2,0-0.4-0.1-0.6-0.1c-0.2-0.1-0.3-0.1-0.4-0.2c-0.1-0.1-0.2-0.1-0.3-0.2c-0.1,0-0.1-0.1-0.1-0.2
		c0-0.1,0-0.2,0-0.3c0-0.1,0-0.2,0-0.2c0-0.1,0-0.1,0-0.1c0,0,0-0.1,0.1-0.1c0,0,0.1,0,0.1,0c0.1,0,0.1,0,0.2,0.1
		c0.1,0.1,0.2,0.1,0.4,0.2c0.2,0.1,0.3,0.1,0.6,0.2c0.2,0.1,0.5,0.1,0.7,0.1c0.2,0,0.4,0,0.6-0.1c0.2,0,0.3-0.1,0.4-0.2
		c0.1-0.1,0.2-0.2,0.3-0.3c0.1-0.1,0.1-0.3,0.1-0.5c0-0.2,0-0.3-0.1-0.5c-0.1-0.1-0.2-0.2-0.4-0.3c-0.2-0.1-0.3-0.2-0.5-0.3
		c-0.2-0.1-0.4-0.2-0.6-0.2c-0.2-0.1-0.4-0.2-0.6-0.3c-0.2-0.1-0.4-0.2-0.5-0.4c-0.2-0.1-0.3-0.3-0.4-0.5c-0.1-0.2-0.1-0.4-0.1-0.7
		c0-0.3,0.1-0.5,0.2-0.7s0.3-0.4,0.5-0.6c0.2-0.2,0.5-0.3,0.8-0.4c0.3-0.1,0.7-0.2,1.1-0.2c0.2,0,0.4,0,0.5,0s0.3,0.1,0.5,0.1
		c0.1,0,0.3,0.1,0.4,0.1c0.1,0.1,0.2,0.1,0.2,0.1c0.1,0,0.1,0.1,0.1,0.1c0,0,0,0.1,0,0.1c0,0,0,0.1,0,0.1c0,0.1,0,0.1,0,0.2
		c0,0.1,0,0.1,0,0.2c0,0.1,0,0.1,0,0.1c0,0,0,0.1-0.1,0.1c0,0-0.1,0-0.1,0c0,0-0.1,0-0.2-0.1c-0.1-0.1-0.2-0.1-0.3-0.2
		s-0.3-0.1-0.5-0.2c-0.2-0.1-0.4-0.1-0.6-0.1c-0.2,0-0.4,0-0.6,0.1c-0.2,0-0.3,0.1-0.4,0.2c-0.1,0.1-0.2,0.2-0.2,0.3
		c-0.1,0.1-0.1,0.2-0.1,0.4c0,0.2,0.1,0.3,0.2,0.5c0.1,0.1,0.2,0.2,0.4,0.3c0.2,0.1,0.3,0.2,0.6,0.3c0.2,0.1,0.4,0.2,0.6,0.2
		c0.2,0.1,0.4,0.2,0.6,0.3c0.2,0.1,0.4,0.2,0.6,0.4c0.2,0.1,0.3,0.3,0.4,0.5C250.6,46.8,250.6,47,250.6,47.3z"/>
	<path d="M86.1,66.5c0,0.1,0,0.1-0.1,0.1c0,0-0.1,0-0.2,0.1c-0.1,0-0.2,0-0.3,0c-0.1,0-0.2,0-0.3,0c-0.1,0-0.1,0-0.2-0.1
		s-0.1-0.1-0.1-0.1v-0.6c-0.3,0.3-0.6,0.5-1,0.7c-0.4,0.2-0.8,0.2-1.2,0.2c-0.4,0-0.7,0-1-0.1c-0.3-0.1-0.5-0.2-0.7-0.4
		c-0.2-0.2-0.4-0.4-0.5-0.6c-0.1-0.2-0.2-0.5-0.2-0.8c0-0.4,0.1-0.7,0.2-0.9c0.2-0.3,0.4-0.5,0.7-0.7c0.3-0.2,0.7-0.3,1.1-0.4
		c0.4-0.1,0.9-0.1,1.4-0.1h0.9v-0.5c0-0.2,0-0.5-0.1-0.7c-0.1-0.2-0.1-0.3-0.3-0.5s-0.3-0.2-0.5-0.3c-0.2-0.1-0.4-0.1-0.7-0.1
		c-0.3,0-0.6,0-0.8,0.1s-0.5,0.1-0.6,0.2c-0.2,0.1-0.3,0.2-0.5,0.2c-0.1,0.1-0.2,0.1-0.3,0.1c0,0-0.1,0-0.1,0s-0.1,0-0.1-0.1
		c0,0,0-0.1,0-0.1c0-0.1,0-0.1,0-0.2c0-0.1,0-0.2,0-0.3c0-0.1,0.1-0.1,0.1-0.2c0.1-0.1,0.2-0.1,0.4-0.2c0.2-0.1,0.4-0.2,0.6-0.2
		c0.2-0.1,0.5-0.1,0.7-0.2c0.3,0,0.5-0.1,0.8-0.1c0.5,0,0.9,0.1,1.2,0.2c0.3,0.1,0.6,0.3,0.8,0.5c0.2,0.2,0.4,0.5,0.5,0.7
		c0.1,0.3,0.1,0.6,0.1,1V66.5z M84.9,63.6h-1.1c-0.3,0-0.6,0-0.9,0.1c-0.3,0.1-0.5,0.1-0.6,0.2c-0.2,0.1-0.3,0.2-0.4,0.4
		c-0.1,0.1-0.1,0.3-0.1,0.5c0,0.3,0.1,0.6,0.3,0.8c0.2,0.2,0.5,0.3,0.9,0.3c0.3,0,0.6-0.1,0.9-0.2c0.3-0.2,0.6-0.4,0.9-0.7V63.6z"/>
	<path d="M94.3,66.5C94.3,66.6,94.3,66.6,94.3,66.5c-0.1,0.1-0.1,0.1-0.1,0.2c0,0-0.1,0-0.2,0c-0.1,0-0.2,0-0.3,0
		c-0.1,0-0.2,0-0.3,0c-0.1,0-0.1,0-0.2,0c0,0-0.1,0-0.1-0.1c0,0,0-0.1,0-0.1v-3.7c0-0.4,0-0.7-0.1-0.9c-0.1-0.2-0.1-0.4-0.3-0.6
		c-0.1-0.2-0.3-0.3-0.4-0.4c-0.2-0.1-0.4-0.1-0.6-0.1c-0.3,0-0.6,0.1-0.9,0.3c-0.3,0.2-0.6,0.5-1,0.9v4.5c0,0,0,0.1,0,0.1
		c0,0-0.1,0-0.1,0.1c0,0-0.1,0-0.2,0c-0.1,0-0.2,0-0.3,0c-0.1,0-0.2,0-0.3,0c-0.1,0-0.1,0-0.2,0c0,0-0.1,0-0.1-0.1c0,0,0-0.1,0-0.1
		v-6.4c0,0,0-0.1,0-0.1c0,0,0,0,0.1-0.1c0,0,0.1,0,0.2,0c0.1,0,0.2,0,0.3,0c0.1,0,0.2,0,0.3,0c0.1,0,0.1,0,0.2,0c0,0,0.1,0,0.1,0.1
		c0,0,0,0.1,0,0.1V61c0.4-0.4,0.8-0.7,1.1-0.9c0.4-0.2,0.8-0.3,1.2-0.3c0.5,0,0.8,0.1,1.1,0.2c0.3,0.1,0.6,0.3,0.8,0.6
		c0.2,0.2,0.3,0.5,0.4,0.8c0.1,0.3,0.1,0.7,0.1,1.2V66.5z"/>
	<path d="M102.4,66.5C102.4,66.6,102.4,66.6,102.4,66.5c0,0.1-0.1,0.1-0.1,0.2c0,0-0.1,0-0.2,0c-0.1,0-0.2,0-0.3,0
		c-0.1,0-0.2,0-0.3,0c-0.1,0-0.1,0-0.2,0s-0.1,0-0.1-0.1c0,0,0-0.1,0-0.1v-0.8c-0.4,0.4-0.7,0.6-1.1,0.9c-0.4,0.2-0.8,0.3-1.3,0.3
		c-0.5,0-0.9-0.1-1.3-0.3c-0.4-0.2-0.6-0.4-0.9-0.7c-0.2-0.3-0.4-0.7-0.5-1.1c-0.1-0.4-0.2-0.9-0.2-1.3c0-0.5,0.1-1,0.2-1.5
		c0.1-0.4,0.3-0.8,0.6-1.1c0.2-0.3,0.6-0.6,0.9-0.7c0.4-0.2,0.8-0.3,1.3-0.3c0.4,0,0.8,0.1,1.1,0.2c0.3,0.2,0.7,0.4,1,0.7v-3.7
		c0,0,0-0.1,0-0.1c0,0,0.1-0.1,0.1-0.1c0.1,0,0.1,0,0.2,0c0.1,0,0.2,0,0.3,0c0.1,0,0.2,0,0.3,0c0.1,0,0.1,0,0.2,0c0,0,0.1,0,0.1,0.1
		c0,0,0,0.1,0,0.1V66.5z M101.1,62c-0.3-0.4-0.7-0.7-1-0.9c-0.3-0.2-0.6-0.3-1-0.3c-0.3,0-0.6,0.1-0.8,0.2c-0.2,0.1-0.4,0.3-0.5,0.6
		s-0.2,0.5-0.3,0.8c-0.1,0.3-0.1,0.6-0.1,0.9c0,0.3,0,0.6,0.1,0.9c0.1,0.3,0.1,0.6,0.3,0.8c0.1,0.2,0.3,0.4,0.5,0.6
		c0.2,0.1,0.5,0.2,0.8,0.2c0.2,0,0.3,0,0.5-0.1c0.2,0,0.3-0.1,0.5-0.2c0.2-0.1,0.3-0.2,0.5-0.4c0.2-0.2,0.4-0.4,0.6-0.6V62z"/>
	<path d="M113.3,66.5c0,0.1,0,0.1-0.1,0.1c0,0-0.1,0-0.2,0.1c-0.1,0-0.2,0-0.3,0c-0.1,0-0.2,0-0.3,0c-0.1,0-0.1,0-0.2-0.1
		c0,0-0.1-0.1-0.1-0.1v-0.6c-0.3,0.3-0.6,0.5-1,0.7c-0.4,0.2-0.8,0.2-1.2,0.2c-0.4,0-0.7,0-1-0.1c-0.3-0.1-0.5-0.2-0.7-0.4
		c-0.2-0.2-0.4-0.4-0.5-0.6s-0.2-0.5-0.2-0.8c0-0.4,0.1-0.7,0.2-0.9c0.2-0.3,0.4-0.5,0.7-0.7c0.3-0.2,0.7-0.3,1.1-0.4
		c0.4-0.1,0.9-0.1,1.4-0.1h0.9v-0.5c0-0.2,0-0.5-0.1-0.7c-0.1-0.2-0.1-0.3-0.3-0.5s-0.3-0.2-0.5-0.3c-0.2-0.1-0.4-0.1-0.7-0.1
		c-0.3,0-0.6,0-0.8,0.1s-0.5,0.1-0.6,0.2c-0.2,0.1-0.3,0.2-0.5,0.2c-0.1,0.1-0.2,0.1-0.3,0.1c0,0-0.1,0-0.1,0s-0.1,0-0.1-0.1
		c0,0,0-0.1,0-0.1c0-0.1,0-0.1,0-0.2c0-0.1,0-0.2,0-0.3c0-0.1,0.1-0.1,0.1-0.2c0.1-0.1,0.2-0.1,0.4-0.2c0.2-0.1,0.4-0.2,0.6-0.2
		c0.2-0.1,0.5-0.1,0.7-0.2c0.3,0,0.5-0.1,0.8-0.1c0.5,0,0.9,0.1,1.2,0.2c0.3,0.1,0.6,0.3,0.8,0.5c0.2,0.2,0.4,0.5,0.5,0.7
		c0.1,0.3,0.1,0.6,0.1,1V66.5z M112.1,63.6H111c-0.3,0-0.6,0-0.9,0.1c-0.3,0.1-0.5,0.1-0.6,0.2c-0.2,0.1-0.3,0.2-0.4,0.4
		c-0.1,0.1-0.1,0.3-0.1,0.5c0,0.3,0.1,0.6,0.3,0.8c0.2,0.2,0.5,0.3,0.9,0.3c0.3,0,0.6-0.1,0.9-0.2c0.3-0.2,0.6-0.4,0.9-0.7V63.6z"/>
	<path d="M121.4,66.5C121.4,66.6,121.4,66.6,121.4,66.5c0,0.1-0.1,0.1-0.1,0.2c0,0-0.1,0-0.2,0c-0.1,0-0.2,0-0.3,0
		c-0.1,0-0.2,0-0.3,0c-0.1,0-0.1,0-0.2,0c0,0-0.1,0-0.1-0.1c0,0,0-0.1,0-0.1v-0.8c-0.4,0.4-0.8,0.7-1.1,0.9
		c-0.4,0.2-0.8,0.3-1.1,0.3c-0.5,0-0.8-0.1-1.1-0.2s-0.6-0.3-0.8-0.6c-0.2-0.2-0.3-0.5-0.4-0.9c-0.1-0.3-0.1-0.7-0.1-1.2v-3.9
		c0,0,0-0.1,0-0.1c0,0,0.1,0,0.1-0.1c0.1,0,0.1,0,0.2,0c0.1,0,0.2,0,0.3,0s0.2,0,0.3,0c0.1,0,0.1,0,0.2,0c0,0,0.1,0,0.1,0.1
		c0,0,0,0.1,0,0.1v3.7c0,0.4,0,0.7,0.1,0.9c0.1,0.2,0.1,0.4,0.3,0.6c0.1,0.2,0.3,0.3,0.4,0.4c0.2,0.1,0.4,0.1,0.6,0.1
		c0.3,0,0.6-0.1,0.9-0.3c0.3-0.2,0.6-0.5,1-0.9v-4.5c0,0,0-0.1,0-0.1c0,0,0.1,0,0.1-0.1c0.1,0,0.1,0,0.2,0c0.1,0,0.2,0,0.3,0
		c0.1,0,0.2,0,0.3,0c0.1,0,0.1,0,0.2,0c0,0,0.1,0,0.1,0.1c0,0,0,0.1,0,0.1V66.5z"/>
	<path d="M127.3,66c0,0.1,0,0.2,0,0.3c0,0.1-0.1,0.1-0.1,0.2c0,0-0.1,0.1-0.2,0.1c-0.1,0-0.2,0.1-0.3,0.1c-0.1,0-0.2,0-0.3,0.1
		c-0.1,0-0.2,0-0.3,0c-0.4,0-0.7,0-0.9-0.1c-0.3-0.1-0.5-0.2-0.6-0.4c-0.2-0.2-0.3-0.4-0.4-0.7c-0.1-0.3-0.1-0.6-0.1-1v-3.7h-1
		c-0.1,0-0.1,0-0.2-0.1c0-0.1-0.1-0.2-0.1-0.4c0-0.1,0-0.2,0-0.2c0-0.1,0-0.1,0-0.2c0,0,0-0.1,0.1-0.1c0,0,0.1,0,0.1,0h0.9v-1.5
		c0,0,0-0.1,0-0.1c0,0,0.1-0.1,0.1-0.1c0,0,0.1,0,0.2,0c0.1,0,0.2,0,0.3,0c0.1,0,0.2,0,0.3,0c0.1,0,0.1,0,0.2,0c0,0,0.1,0,0.1,0.1
		c0,0,0,0.1,0,0.1v1.5h1.7c0,0,0.1,0,0.1,0s0.1,0,0.1,0.1c0,0,0,0.1,0,0.2c0,0.1,0,0.1,0,0.2c0,0.2,0,0.3-0.1,0.4
		c0,0.1-0.1,0.1-0.2,0.1h-1.7v3.6c0,0.4,0.1,0.8,0.2,1c0.1,0.2,0.4,0.3,0.7,0.3c0.1,0,0.2,0,0.3,0c0.1,0,0.2,0,0.2-0.1
		c0.1,0,0.1,0,0.2-0.1c0.1,0,0.1,0,0.1,0c0,0,0,0,0.1,0c0,0,0,0,0.1,0.1c0,0,0,0.1,0,0.1C127.3,65.9,127.3,66,127.3,66z"/>
	<path d="M135.1,63.2c0,0.5-0.1,1-0.2,1.4c-0.1,0.4-0.4,0.8-0.7,1.1c-0.3,0.3-0.7,0.6-1.1,0.7c-0.4,0.2-0.9,0.3-1.5,0.3
		c-0.6,0-1-0.1-1.5-0.2c-0.4-0.2-0.8-0.4-1-0.7s-0.5-0.7-0.6-1.1c-0.1-0.4-0.2-0.9-0.2-1.4c0-0.5,0.1-1,0.2-1.4
		c0.1-0.4,0.4-0.8,0.7-1.1c0.3-0.3,0.7-0.6,1.1-0.7c0.4-0.2,0.9-0.3,1.5-0.3c0.6,0,1,0.1,1.5,0.2c0.4,0.2,0.8,0.4,1,0.7
		c0.3,0.3,0.5,0.7,0.6,1.1C135,62.2,135.1,62.7,135.1,63.2z M133.8,63.3c0-0.3,0-0.7-0.1-1c-0.1-0.3-0.2-0.6-0.3-0.8
		c-0.2-0.2-0.4-0.4-0.6-0.6c-0.3-0.1-0.6-0.2-1-0.2c-0.4,0-0.7,0.1-1,0.2c-0.3,0.1-0.5,0.3-0.7,0.5c-0.2,0.2-0.3,0.5-0.4,0.8
		c-0.1,0.3-0.1,0.6-0.1,1c0,0.4,0,0.7,0.1,1c0.1,0.3,0.2,0.6,0.3,0.8s0.4,0.4,0.6,0.5c0.3,0.1,0.6,0.2,1,0.2c0.4,0,0.7-0.1,1-0.2
		c0.3-0.1,0.5-0.3,0.7-0.5c0.2-0.2,0.3-0.5,0.4-0.8C133.8,64,133.8,63.7,133.8,63.3z"/>
	<path d="M147,66.5C147,66.6,147,66.6,147,66.5c-0.1,0.1-0.1,0.1-0.1,0.2c0,0-0.1,0-0.2,0c-0.1,0-0.2,0-0.3,0c-0.1,0-0.2,0-0.3,0
		c-0.1,0-0.1,0-0.2,0c0,0-0.1,0-0.1-0.1c0,0,0-0.1,0-0.1v-3.9c0-0.3,0-0.5-0.1-0.7c-0.1-0.2-0.1-0.4-0.2-0.6
		c-0.1-0.2-0.3-0.3-0.4-0.4s-0.4-0.1-0.6-0.1c-0.3,0-0.6,0.1-0.9,0.3c-0.3,0.2-0.6,0.5-1,0.9v4.5c0,0,0,0.1,0,0.1c0,0-0.1,0-0.1,0.1
		c0,0-0.1,0-0.2,0c-0.1,0-0.2,0-0.3,0c-0.1,0-0.2,0-0.3,0c-0.1,0-0.1,0-0.2,0c0,0-0.1,0-0.1-0.1c0,0,0-0.1,0-0.1v-3.9
		c0-0.3,0-0.5-0.1-0.7c-0.1-0.2-0.1-0.4-0.2-0.6c-0.1-0.2-0.3-0.3-0.4-0.4c-0.2-0.1-0.4-0.1-0.6-0.1c-0.3,0-0.6,0.1-0.9,0.3
		c-0.3,0.2-0.6,0.5-1,0.9v4.5c0,0,0,0.1,0,0.1c0,0-0.1,0-0.1,0.1c0,0-0.1,0-0.2,0c-0.1,0-0.2,0-0.3,0c-0.1,0-0.2,0-0.3,0
		c-0.1,0-0.1,0-0.2,0c0,0-0.1,0-0.1-0.1c0,0,0-0.1,0-0.1v-6.4c0,0,0-0.1,0-0.1c0,0,0,0,0.1-0.1c0,0,0.1,0,0.2,0c0.1,0,0.2,0,0.3,0
		c0.1,0,0.2,0,0.3,0c0.1,0,0.1,0,0.2,0c0,0,0.1,0,0.1,0.1c0,0,0,0.1,0,0.1V61c0.4-0.4,0.8-0.7,1.1-0.9c0.4-0.2,0.7-0.3,1.1-0.3
		c0.3,0,0.5,0,0.8,0.1c0.2,0.1,0.4,0.1,0.6,0.3c0.2,0.1,0.3,0.2,0.4,0.4c0.1,0.2,0.2,0.3,0.3,0.5c0.2-0.2,0.4-0.4,0.6-0.6
		c0.2-0.2,0.4-0.3,0.6-0.4c0.2-0.1,0.4-0.2,0.6-0.2c0.2,0,0.4-0.1,0.5-0.1c0.4,0,0.8,0.1,1.1,0.2c0.3,0.1,0.5,0.3,0.7,0.6
		c0.2,0.2,0.3,0.5,0.4,0.8c0.1,0.3,0.1,0.7,0.1,1V66.5z"/>
	<path d="M154.4,66.5c0,0.1,0,0.1-0.1,0.1c0,0-0.1,0-0.2,0.1c-0.1,0-0.2,0-0.3,0c-0.1,0-0.2,0-0.3,0c-0.1,0-0.1,0-0.2-0.1
		c0,0-0.1-0.1-0.1-0.1v-0.6c-0.3,0.3-0.6,0.5-1,0.7c-0.4,0.2-0.8,0.2-1.2,0.2c-0.4,0-0.7,0-1-0.1c-0.3-0.1-0.5-0.2-0.7-0.4
		c-0.2-0.2-0.4-0.4-0.5-0.6s-0.2-0.5-0.2-0.8c0-0.4,0.1-0.7,0.2-0.9c0.2-0.3,0.4-0.5,0.7-0.7c0.3-0.2,0.7-0.3,1.1-0.4
		c0.4-0.1,0.9-0.1,1.4-0.1h0.9v-0.5c0-0.2,0-0.5-0.1-0.7c-0.1-0.2-0.1-0.3-0.3-0.5c-0.1-0.1-0.3-0.2-0.5-0.3
		c-0.2-0.1-0.4-0.1-0.7-0.1c-0.3,0-0.6,0-0.8,0.1c-0.2,0.1-0.5,0.1-0.6,0.2c-0.2,0.1-0.3,0.2-0.5,0.2c-0.1,0.1-0.2,0.1-0.3,0.1
		c0,0-0.1,0-0.1,0s-0.1,0-0.1-0.1c0,0,0-0.1,0-0.1c0-0.1,0-0.1,0-0.2c0-0.1,0-0.2,0-0.3c0-0.1,0.1-0.1,0.1-0.2
		c0.1-0.1,0.2-0.1,0.4-0.2c0.2-0.1,0.4-0.2,0.6-0.2c0.2-0.1,0.5-0.1,0.7-0.2c0.3,0,0.5-0.1,0.8-0.1c0.5,0,0.9,0.1,1.2,0.2
		c0.3,0.1,0.6,0.3,0.8,0.5c0.2,0.2,0.4,0.5,0.5,0.7c0.1,0.3,0.1,0.6,0.1,1V66.5z M153.2,63.6h-1.1c-0.3,0-0.6,0-0.9,0.1
		c-0.3,0.1-0.5,0.1-0.6,0.2c-0.2,0.1-0.3,0.2-0.4,0.4c-0.1,0.1-0.1,0.3-0.1,0.5c0,0.3,0.1,0.6,0.3,0.8c0.2,0.2,0.5,0.3,0.9,0.3
		c0.3,0,0.6-0.1,0.9-0.2c0.3-0.2,0.6-0.4,0.9-0.7V63.6z"/>
	<path d="M160.1,66c0,0.1,0,0.2,0,0.3c0,0.1-0.1,0.1-0.1,0.2c0,0-0.1,0.1-0.2,0.1c-0.1,0-0.2,0.1-0.3,0.1c-0.1,0-0.2,0-0.3,0.1
		c-0.1,0-0.2,0-0.3,0c-0.4,0-0.7,0-0.9-0.1c-0.3-0.1-0.5-0.2-0.6-0.4c-0.2-0.2-0.3-0.4-0.4-0.7c-0.1-0.3-0.1-0.6-0.1-1v-3.7h-1
		c-0.1,0-0.1,0-0.2-0.1c0-0.1-0.1-0.2-0.1-0.4c0-0.1,0-0.2,0-0.2c0-0.1,0-0.1,0-0.2c0,0,0-0.1,0.1-0.1c0,0,0.1,0,0.1,0h0.9v-1.5
		c0,0,0-0.1,0-0.1c0,0,0.1-0.1,0.1-0.1c0,0,0.1,0,0.2,0c0.1,0,0.2,0,0.3,0c0.1,0,0.2,0,0.3,0c0.1,0,0.1,0,0.2,0c0,0,0.1,0,0.1,0.1
		c0,0,0,0.1,0,0.1v1.5h1.7c0,0,0.1,0,0.1,0s0.1,0,0.1,0.1c0,0,0,0.1,0,0.2c0,0.1,0,0.1,0,0.2c0,0.2,0,0.3-0.1,0.4
		c0,0.1-0.1,0.1-0.2,0.1h-1.7v3.6c0,0.4,0.1,0.8,0.2,1c0.1,0.2,0.4,0.3,0.7,0.3c0.1,0,0.2,0,0.3,0c0.1,0,0.2,0,0.2-0.1
		c0.1,0,0.1,0,0.2-0.1c0.1,0,0.1,0,0.1,0c0,0,0,0,0.1,0c0,0,0,0,0.1,0.1c0,0,0,0.1,0,0.1C160.1,65.9,160.1,66,160.1,66z"/>
	<path d="M163.1,58c0,0.3-0.1,0.5-0.2,0.6c-0.1,0.1-0.3,0.1-0.6,0.1c-0.3,0-0.5,0-0.6-0.1c-0.1-0.1-0.2-0.3-0.2-0.5
		c0-0.3,0.1-0.5,0.2-0.6c0.1-0.1,0.3-0.1,0.6-0.1c0.3,0,0.5,0,0.6,0.1C163.1,57.5,163.1,57.7,163.1,58z M163,66.5
		C163,66.6,163,66.6,163,66.5c-0.1,0.1-0.1,0.1-0.1,0.2c0,0-0.1,0-0.2,0c-0.1,0-0.2,0-0.3,0c-0.1,0-0.2,0-0.3,0c-0.1,0-0.1,0-0.2,0
		c0,0-0.1,0-0.1-0.1c0,0,0-0.1,0-0.1v-6.4c0,0,0-0.1,0-0.1c0,0,0.1-0.1,0.1-0.1c0,0,0.1,0,0.2,0c0.1,0,0.2,0,0.3,0
		c0.1,0,0.2,0,0.3,0c0.1,0,0.1,0,0.2,0s0.1,0,0.1,0.1c0,0,0,0.1,0,0.1V66.5z"/>
	<path d="M171.6,63.2c0,0.5-0.1,1-0.2,1.4c-0.1,0.4-0.4,0.8-0.7,1.1c-0.3,0.3-0.7,0.6-1.1,0.7c-0.4,0.2-0.9,0.3-1.5,0.3
		c-0.6,0-1-0.1-1.5-0.2c-0.4-0.2-0.8-0.4-1-0.7s-0.5-0.7-0.6-1.1c-0.1-0.4-0.2-0.9-0.2-1.4c0-0.5,0.1-1,0.2-1.4
		c0.1-0.4,0.4-0.8,0.7-1.1c0.3-0.3,0.7-0.6,1.1-0.7c0.4-0.2,0.9-0.3,1.5-0.3c0.6,0,1,0.1,1.5,0.2c0.4,0.2,0.8,0.4,1,0.7
		c0.3,0.3,0.5,0.7,0.6,1.1C171.6,62.2,171.6,62.7,171.6,63.2z M170.3,63.3c0-0.3,0-0.7-0.1-1c-0.1-0.3-0.2-0.6-0.3-0.8
		c-0.2-0.2-0.4-0.4-0.6-0.6c-0.3-0.1-0.6-0.2-1-0.2c-0.4,0-0.7,0.1-1,0.2c-0.3,0.1-0.5,0.3-0.7,0.5c-0.2,0.2-0.3,0.5-0.4,0.8
		c-0.1,0.3-0.1,0.6-0.1,1c0,0.4,0,0.7,0.1,1c0.1,0.3,0.2,0.6,0.3,0.8s0.4,0.4,0.6,0.5c0.3,0.1,0.6,0.2,1,0.2c0.4,0,0.7-0.1,1-0.2
		c0.3-0.1,0.5-0.3,0.7-0.5c0.2-0.2,0.3-0.5,0.4-0.8C170.3,64,170.3,63.7,170.3,63.3z"/>
	<path d="M179.3,66.5C179.3,66.6,179.3,66.6,179.3,66.5c-0.1,0.1-0.1,0.1-0.1,0.2c0,0-0.1,0-0.2,0c-0.1,0-0.2,0-0.3,0
		c-0.1,0-0.2,0-0.3,0c-0.1,0-0.1,0-0.2,0c0,0-0.1,0-0.1-0.1c0,0,0-0.1,0-0.1v-3.7c0-0.4,0-0.7-0.1-0.9c-0.1-0.2-0.1-0.4-0.3-0.6
		c-0.1-0.2-0.3-0.3-0.4-0.4c-0.2-0.1-0.4-0.1-0.6-0.1c-0.3,0-0.6,0.1-0.9,0.3c-0.3,0.2-0.6,0.5-1,0.9v4.5c0,0,0,0.1,0,0.1
		c0,0-0.1,0-0.1,0.1c0,0-0.1,0-0.2,0c-0.1,0-0.2,0-0.3,0c-0.1,0-0.2,0-0.3,0c-0.1,0-0.1,0-0.2,0c0,0-0.1,0-0.1-0.1c0,0,0-0.1,0-0.1
		v-6.4c0,0,0-0.1,0-0.1c0,0,0,0,0.1-0.1c0,0,0.1,0,0.2,0c0.1,0,0.2,0,0.3,0c0.1,0,0.2,0,0.3,0c0.1,0,0.1,0,0.2,0c0,0,0.1,0,0.1,0.1
		c0,0,0,0.1,0,0.1V61c0.4-0.4,0.8-0.7,1.1-0.9c0.4-0.2,0.8-0.3,1.2-0.3c0.5,0,0.8,0.1,1.1,0.2c0.3,0.1,0.6,0.3,0.8,0.6
		c0.2,0.2,0.3,0.5,0.4,0.8c0.1,0.3,0.1,0.7,0.1,1.2V66.5z"/>
</g>
</svg>
